# xmcd
#
# Track frame offsets:
#	150
#	21172
#	44323
#	65677
#	81143
#	98908
#	125722
#	140858
#	154338
#	173685
#
# Disc length: 2562 seconds
#
# Revision: 1
# Processed by: cddbd v1.5.2PL0 Copyright (c) Steve Scherf et al.
# Submitted via: audiograbber 1.83.01
#
DISCID=8c0a000a
DTITLE=Queen Porter Stomp - Follow the river
DYEAR=2017
DGENRE=Blues
TTITLE0=Long road
TTITLE1=Dirty deeds
TTITLE2=Rascal
TTITLE3=Sailor man
TTITLE4=Follow the river
TTITLE5=Island home
TTITLE6=Walk alone
TTITLE7=Rescue me
TTITLE8=Slender man
TTITLE9=Close the door
EXTD=
EXTT0=
EXTT1=
EXTT2=
EXTT3=
EXTT4=
EXTT5=
EXTT6=
EXTT7=
EXTT8=
EXTT9=
PLAYORDER=
